<svg width="10" height="12" viewBox="0 0 10 12" fill="none" xmlns="http://www.w3.org/2000/svg">
<path d="M3.50014 5.99986C4.60487 5.99986 5.50022 4.65692 5.50022 2.99993C5.50022 1.34294 4.60487 0 3.50014 0C2.39541 0 1.50006 1.34294 1.50006 2.99993C1.50006 4.65692 2.39541 5.99986 3.50014 5.99986ZM4.90019 6.74984H4.63924C4.29236 6.9889 3.9064 7.12483 3.50014 7.12483C3.09387 7.12483 2.70948 6.9889 2.36103 6.74984H2.10008C0.940662 6.74984 0 8.16074 0 9.89977V10.8747C0 11.4958 0.335951 11.9997 0.750029 11.9997H5.04551C5.00801 11.8403 4.99238 11.6716 5.00488 11.5005L5.11114 10.0732L5.12989 9.81305L5.25333 9.6279L6.46119 7.81622C6.07836 7.16702 5.52365 6.74984 4.90019 6.74984ZM5.60803 10.1552L5.50178 11.5849C5.48459 11.8239 5.61897 12.0255 5.77679 11.9974L6.72839 11.838L8.88316 8.60605L7.7628 6.92562L5.60803 10.1552ZM9.89101 6.30219L9.2988 5.41393C9.15348 5.19597 8.91597 5.19597 8.77066 5.41393L8.18001 6.29985L8.11594 6.39594L9.23786 8.07637L9.89101 7.09671C10.0363 6.8764 10.0363 6.5225 9.89101 6.30219Z" fill="black"/>
</svg>
